<svg width="20" height="20" fill="none" xmlns="http://www.w3.org/2000/svg"><g clip-path="url(#a)" fill="#131313"><path d="M13.259 10.102 20 14.365V5.66l-6.742 4.442ZM0 5.66v8.705l6.742-4.263L0 5.66ZM18.749 3.125h-17.5c-.624 0-1.12.465-1.213 1.064L10 10.752 19.96 4.19c-.094-.599-.589-1.064-1.212-1.064ZM12.114 10.858l-1.77 1.165a.625.625 0 0 1-.687 0L7.89 10.856.04 15.82c.096.594.589 1.055 1.21 1.055h17.5c.621 0 1.114-.461 1.21-1.055l-7.847-4.962Z"/></g><defs><clipPath id="a"><path fill="#fff" d="M0 0h20v20H0z"/></clipPath></defs></svg>