<svg width="20" height="20" fill="none" xmlns="http://www.w3.org/2000/svg"><g clip-path="url(#a)" fill="#fff"><path d="M13.259 10.102 20 14.365V5.66l-6.742 4.442ZM0 5.66v8.705l6.742-4.263L0 5.66ZM18.75 3.125H1.25c-.625 0-1.12.465-1.213 1.064l9.962 6.563 9.963-6.563c-.094-.599-.59-1.064-1.213-1.064ZM12.113 10.858l-1.769 1.165a.625.625 0 0 1-.687 0l-1.769-1.167L.041 15.82c.096.594.588 1.055 1.21 1.055h17.5c.62 0 1.113-.461 1.21-1.055l-7.848-4.962Z"/></g><defs><clipPath id="a"><path fill="#fff" d="M0 0h20v20H0z"/></clipPath></defs></svg>