<svg width="62" height="48" fill="none" xmlns="http://www.w3.org/2000/svg"><path d="m31 23.896-3.331 5.552 3.33 5.551 3.332-5.551L31 23.896Zm0 0-3.331 5.552 3.33 5.551 3.332-5.551L31 23.896Zm28.096-8.62L46.09 24.952 32.576 1.304c-.696-1.22-2.456-1.218-3.153 0L15.91 24.951 2.903 15.277C1.534 14.258-.36 15.53.06 17.183l4.964 19.53H16.47a1.817 1.817 0 0 1 0 3.632H5.946l1.5 5.897c.204.804.929 1.368 1.76 1.368h43.588c.83 0 1.556-.564 1.76-1.368l1.5-5.897H45.529a1.817 1.817 0 0 1 0-3.632h11.447l4.965-19.53c.42-1.656-1.478-2.922-2.845-1.906Zm-21.09 15.107-5.449 9.08c-.702 1.171-2.407 1.179-3.114 0l-5.449-9.08a1.818 1.818 0 0 1 0-1.87l5.449-9.08c.702-1.172 2.407-1.179 3.114 0l5.449 9.08a1.818 1.818 0 0 1 0 1.87Zm-10.337-.935 3.33 5.551 3.332-5.551L31 23.896l-3.331 5.552Z" fill="#FB1B3D"/><path d="m18.21 13.606-3.42 5.985-5.073-3.774 1.34-6.703c.307-1.537 2.293-1.987 3.234-.734l3.92 5.226ZM52.283 15.817 47.21 19.59l-3.42-5.985 3.919-5.226c.94-1.253 2.926-.803 3.234.734l1.34 6.703Z" fill="#FB1B3D"/></svg>