<svg width="405" height="684" fill="none" xmlns="http://www.w3.org/2000/svg"><g filter="url(#a)"><path d="M344.963 33.5 134 33m210.963.5-.173.5-19.902 77m20.075-77.5-82.47 15.613M134 33l56.023 21.726 72.47-5.613M134 33 76 22l43.247 62 143.246 41M134 33l128.493 92m102.74 80.842-33.622 94.838m33.622-94.838L397.651 77l-72.763 34m40.345 94.842 32.418 94.197m-32.418-94.197-10.172-72.421L324.888 111m-86.899 310.519 93.622-120.839m-93.622 120.839 55.161 90.72m-55.161-90.72 159.662-121.48m-66.04.641 66.04-.641m-104.501 212.2 109.357-74.388M293.15 512.239 230.523 661.47m62.627-149.231 80.001 35.3m-80.001-35.3-55.17 20.978m55.17-20.978 104.501-212.2m-24.5 247.5 29.356-109.688m-29.356 109.688 29.945 118.068-172.573-4.137m142.628-113.931L230.523 661.47m171.984-223.619-4.856-137.812M230.523 661.47c0 3.31-106.811 15.066-160.216 20.53m160.216-20.53-32.184-47.09m39.641-81.163-39.641 81.163m39.641-81.163-114.13 78.09M70.307 682l53.543-70.693M70.307 682 19.88 625.607m178.458-11.227-74.489-3.073M262.493 49.113 324.888 111m-62.395-61.887V125m62.395-14-62.395 14M76.307 23 33 61" stroke="url(#b)" stroke-width="2"/></g><defs><linearGradient id="b" x1="602.594" y1="305.571" x2="-320.996" y2="31.862" gradientUnits="userSpaceOnUse"><stop stop-color="#fff" stop-opacity=".07"/><stop offset=".276" stop-color="#fff"/><stop offset="1" stop-color="#fff" stop-opacity="0"/></linearGradient><filter id="a" x="-20.865" y=".561" width="425.253" height="682.486" filterUnits="userSpaceOnUse" color-interpolation-filters="sRGB"><feFlood flood-opacity="0" result="BackgroundImageFix"/><feColorMatrix in="SourceAlpha" values="0 0 0 0 0 0 0 0 0 0 0 0 0 0 0 0 0 0 127 0" result="hardAlpha"/><feOffset dx="-30" dy="-10"/><feGaussianBlur stdDeviation="5"/><feColorMatrix values="0 0 0 0 0 0 0 0 0 0 0 0 0 0 0 0 0 0 1 0"/><feBlend in2="BackgroundImageFix" result="effect1_dropShadow_33_8"/><feBlend in="SourceGraphic" in2="effect1_dropShadow_33_8" result="shape"/></filter></defs></svg>