<svg width="386" height="664" fill="none" xmlns="http://www.w3.org/2000/svg"><path d="M325.963 13.5 115 13m210.963.5-.173.5-19.902 77m20.075-77.5-82.47 15.613M115 13l56.023 21.726 72.47-5.613M115 13 57 2l43.247 62 143.246 41M115 13l128.493 92m102.74 80.842-33.622 94.838m33.622-94.838L378.651 57l-72.763 34m40.345 94.842 32.418 94.197m-32.418-94.197-10.172-72.421L305.888 91m-86.899 310.519 93.622-120.839m-93.622 120.839 55.161 90.72m-55.161-90.72 159.662-121.48m-66.04.641 66.04-.641m-104.501 212.2 109.357-74.388M274.15 492.239 211.523 641.47m62.627-149.231 80.001 35.3m-80.001-35.3-55.17 20.978m55.17-20.978 104.501-212.2m-24.5 247.5 29.356-109.688m-29.356 109.688 29.945 118.068-172.573-4.137m142.628-113.931L211.523 641.47m171.984-223.619-4.856-137.812M211.523 641.47c0 3.31-106.811 15.066-160.216 20.53m160.216-20.53-32.184-47.09m39.641-81.163-39.641 81.163m39.641-81.163-114.13 78.09M51.307 662l53.543-70.693M51.307 662 .88 605.607m178.458-11.227-74.489-3.073M243.493 29.113 305.888 91m-62.395-61.887V105m62.395-14-62.395 14M57.307 3 14 41" stroke="#FB1B3D" stroke-width="2"/></svg>