<svg width="1410" height="820" fill="none" xmlns="http://www.w3.org/2000/svg"><path d="m114.852 81.822 158.282-54.791 13.884 53.65m13.885 53.649L1 54.426m299.903 79.904 105.521 17.547M300.903 134.33l-13.885-53.65m13.885 53.65 127.736-38.81m-22.215 56.357 22.215-56.357m-22.215 56.357 244.365-14.619M428.639 95.52 287.018 80.68m141.621 14.84 222.15 41.738M428.639 95.52l88.86-68.49M287.018 80.68l230.481-53.65m0 0 49.984 54.792m83.306 55.436L859.055 55.65m-208.266 81.608-83.306-55.436m83.306 55.436 206.877 82.276m1.389-163.884L567.483 81.822M859.055 55.65l-1.389 163.884m1.389-163.884L1064.54 2M857.666 219.534 1064.54 2M857.666 219.534l170.774 29.027M1064.54 2l88.86 107.3M1064.54 2l-36.1 246.561M1153.4 109.3l-124.96 139.261M1153.4 109.3l177.72-79.904M1153.4 109.3l31.94 94.743M1153.4 109.3l136.76 69.41m-261.72 69.851 220.77 79.463m-220.77-79.463 44.43 107.3m258.25-326.465 63.87 136.978m-63.87-136.978-40.96 149.314m40.96-149.314-9.02 217.803m72.89-80.825-12.49 123.281m12.49-123.281-72.89 80.825m-72.89 80.825 80.38 47.365m-80.38-47.365 133.29-38.369m-133.29 38.369L1117.3 463.16m131.91-135.136-63.87-123.981m63.87 123.981 40.95-149.314m-40.95 149.314 72.89-80.825m-72.89 80.825L1408 560.208m-78.41-184.819 52.91-85.734m-52.91 85.734L1408 560.208m-290.7-97.048-44.43-107.299m44.43 107.299 290.7 97.048m-290.7-97.048L902.543 610.627m170.327-254.766 112.47-151.818M1408 560.208l-164.36 89.098M1408 560.208l-107.75 251.26-133.93-27.629M1408 560.208l-141.04 111.816-100.64 111.815M902.543 610.627l232.497-78.653m-232.497 78.653L738.115 792.922m164.428-182.295 85.495 63.888m-85.495-63.888-128.45 25.626m392.227 147.586 77.32-134.533m-77.32 134.533-229.646 14.137m306.966-148.67-255.602 25.209m255.602-25.209-108.6-117.332M988.038 674.515l147.002-142.541M988.038 674.515l-51.364 123.461m51.364-123.461L738.115 792.922m198.559 5.054-198.559-5.054m0 0c0 4.043-130.454 18.403-195.681 25.078m195.681-25.078 13.21-57.523m22.768-99.146-22.768 99.146m22.768-99.146-113.745 95.391M542.434 818l117.914-86.356M542.434 818l-110.441-20.024m319.332-62.577-90.977-3.755" stroke="#FB1B3D" stroke-width="2"/></svg>