<svg width="1041" height="269" fill="none" xmlns="http://www.w3.org/2000/svg"><path d="M93.95 56.65c-1.8-.3-2.6-1.25-2.4-2.85l6.3-42c.2-1.4 1-2.1 2.4-2.1.1 0 .2.05.3.15.7.1 1.25.4 1.65.9.5.5.65 1.1.45 1.8L96.5 54.4c-.3 1.5-1.15 2.25-2.55 2.25ZM83 98.2c-1.1 0-1.85-.5-2.25-1.5L66.2 61.3c-.3-.6-.35-1.2-.15-1.8.3-.7.8-1.15 1.5-1.35.4-.2.7-.3.9-.3 1.2 0 1.95.55 2.25 1.65l14.7 35.4c.2.6.15 1.25-.15 1.95-.2.6-.6 1-1.2 1.2L83 98.2Zm18.45 7.95c-1 0-1.75-.5-2.25-1.5L69.95 37.6 42.2 96.7c-.5 1-1.25 1.5-2.25 1.5-.3 0-.65-.1-1.05-.3-.6-.3-1.05-.75-1.35-1.35-.2-.7-.15-1.35.15-1.95l30-63.9c.5-1 1.25-1.5 2.25-1.5 1.2 0 1.95.5 2.25 1.5l28.05 64.05 13.2-91.35c.1-.7.4-1.2.9-1.5.5-.4 1.1-.6 1.8-.6.7.1 1.25.4 1.65.9.5.5.65 1.1.45 1.8L104 104.05c-.2 1.2-.95 1.9-2.25 2.1h-.3ZM27.5 55.75c-.6 0-1.15-.2-1.65-.6-.4-.5-.7-1.05-.9-1.65L18.8 4c-.2-1.6.5-2.5 2.1-2.7.7 0 1.3.2 1.8.6.5.3.8.8.9 1.5l6.3 49.5c.2 1.6-.5 2.5-2.1 2.7l-.3.15Zm-6 50.4c-1.5-.3-2.35-1-2.55-2.1L4.7 4c-.2-.7-.1-1.3.3-1.8.5-.5 1.1-.8 1.8-.9.7 0 1.3.2 1.8.6.5.3.8.8.9 1.5l13.2 91.8 38.4-80.85c.5-.9 1.25-1.35 2.25-1.35.5 0 .85.1 1.05.3.6.2 1 .65 1.2 1.35.3.6.3 1.2 0 1.8l-41.85 88.2c-.5 1-1.25 1.5-2.25 1.5ZM101.45 6.7c-1.1-.3-1.85-.8-2.25-1.5-.4-.7-.5-1.4-.3-2.1v-.15c.5-1.2 1.35-1.8 2.55-1.8.2 0 .35.05.45.15h.45c.8.2 1.35.65 1.65 1.35.3.7.3 1.4 0 2.1v.15c-.3 1.2-1.15 1.8-2.55 1.8Zm59.251 99.6c-.7 0-1.3-.25-1.8-.75s-.75-1.1-.75-1.8v-43.5c0-.7.25-1.3.75-1.8s1.1-.75 1.8-.75h40.95c.7 0 1.3.25 1.8.75s.75 1.1.75 1.8-.25 1.3-.75 1.8c-.5.4-1.1.6-1.8.6h-38.55v38.7h52.05c1.6 0 2.4.8 2.4 2.4 0 .7-.25 1.3-.75 1.8-.4.5-.95.75-1.65.75h-54.45Zm0-56.7c-.7 0-1.3-.25-1.8-.75s-.75-1.1-.75-1.8V3.25c0-.7.25-1.3.75-1.8s1.1-.75 1.8-.75 1.25.25 1.65.75c.5.5.75 1.1.75 1.8v41.4h38.55c.7 0 1.3.25 1.8.75.5.4.75.95.75 1.65s-.25 1.3-.75 1.8-1.1.75-1.8.75h-40.95Zm54.15-35.4c.7 0 1.3.25 1.8.75s.75 1.1.75 1.8-.25 1.3-.75 1.8c-.5.4-1.1.6-1.8.6h-38.85v16.8c0 .7-.25 1.3-.75 1.8s-1.1.75-1.8.75-1.3-.25-1.8-.75c-.4-.5-.6-1.1-.6-1.8v-19.2c0-.7.2-1.3.6-1.8.5-.5 1.1-.75 1.8-.75h41.4Zm-41.85-8.1c-.7 0-1.3-.25-1.8-.75-.4-.5-.6-1.1-.6-1.8 0-1.6.8-2.4 2.4-2.4h42.15c.7 0 1.3.25 1.8.75.5.4.75.95.75 1.65s-.25 1.3-.75 1.8-1.1.75-1.8.75h-42.15Zm.45 62.25c.7 0 1.3.25 1.8.75.5.4.75 1 .75 1.8v17.7h30c.7 0 1.3.25 1.8.75s.75 1.1.75 1.8-.25 1.3-.75 1.8c-.5.4-1.1.6-1.8.6h-32.55c-1.6 0-2.4-.8-2.4-2.4V70.9c0-1.7.8-2.55 2.4-2.55Zm41.85 20.1c.7.2 1.2.65 1.5 1.35.3.6.35 1.25.15 1.95v.15c-.5 1.2-1.35 1.8-2.55 1.8-1.1-.3-1.85-.75-2.25-1.35-.4-.7-.5-1.45-.3-2.25.5-1.2 1.35-1.8 2.55-1.8.4 0 .7.05.9.15Zm119.383-13.8c1.6 0 2.4.8 2.4 2.4v26.1c0 1.7-.8 2.55-2.4 2.55-.7 0-1.3-.2-1.8-.6-.5-.5-.75-1.15-.75-1.95v-26.1c0-.7.25-1.25.75-1.65.5-.5 1.1-.75 1.8-.75Zm30.45 20.1c.4.5.5 1.1.3 1.8-.1.7-.4 1.25-.9 1.65-.4.3-.9.45-1.5.45-.8 0-1.45-.4-1.95-1.2l-29.1-43.2c-.9-1.4-.65-2.55.75-3.45.3-.3.75-.45 1.35-.45.7 0 1.4.35 2.1 1.05l28.95 43.35Zm-41.25-76.5v84.9c0 1.7-.8 2.55-2.4 2.55-1.7 0-2.55-.85-2.55-2.55v-87.3c0-.7.2-1.3.6-1.8.5-.5 1.15-.75 1.95-.75h29.85c3.6 0 6.9.35 9.9 1.05 3.1.6 5.7 1.7 7.8 3.3 2.2 1.6 3.9 3.75 5.1 6.45 1.2 2.6 1.8 5.9 1.8 9.9 0 14.1-7.9 21.15-23.7 21.15h-4.65c-.7 0-1.3-.25-1.8-.75s-.75-1.1-.75-1.8.25-1.25.75-1.65c.5-.5 1.1-.75 1.8-.75h4.65c5.8 0 10.35-1.15 13.65-3.45 3.4-2.3 5.1-6.55 5.1-12.75 0-3.2-.5-5.8-1.5-7.8-.9-2.1-2.2-3.7-3.9-4.8-1.7-1.2-3.8-2-6.3-2.4-2.4-.5-5.05-.75-7.95-.75h-27.45Zm36.6 48 24.3 35.55c.9 1.4.7 2.55-.6 3.45-.4.3-.85.45-1.35.45-.9 0-1.6-.35-2.1-1.05l-26.7-39.3c-.6-.7-.65-1.55-.15-2.55.5-.9 1.25-1.35 2.25-1.35 4.2 0 8.05-.65 11.55-1.95 3.5-1.3 6.5-3.15 9-5.55s4.4-5.3 5.7-8.7c1.4-3.4 2.1-7.25 2.1-11.55 0-9.6-2.4-16.5-7.2-20.7-4.8-4.3-11.85-6.45-21.15-6.45h-21.3c-1.6 0-2.4-.85-2.4-2.55 0-1.6.8-2.4 2.4-2.4h21.3c10.6 0 18.8 2.6 24.6 7.8 5.8 5.1 8.7 13.2 8.7 24.3 0 9.2-2.6 16.65-7.8 22.35-5.1 5.6-12.15 9-21.15 10.2Zm8.1 34.2c.8.2 1.35.65 1.65 1.35.3.6.35 1.3.15 2.1h-.15c-.3 1.2-1.15 1.8-2.55 1.8-1.1-.3-1.85-.75-2.25-1.35-.4-.7-.5-1.4-.3-2.1v-.15c.5-1.2 1.35-1.8 2.55-1.8.4 0 .7.05.9.15Zm69.529 5.85c-.7 0-1.3-.25-1.8-.75s-.75-1.1-.75-1.8v-43.5c0-.7.25-1.3.75-1.8s1.1-.75 1.8-.75h40.95c.7 0 1.3.25 1.8.75s.75 1.1.75 1.8-.25 1.3-.75 1.8c-.5.4-1.1.6-1.8.6h-38.55v38.7h52.05c1.6 0 2.4.8 2.4 2.4 0 .7-.25 1.3-.75 1.8-.4.5-.95.75-1.65.75h-54.45Zm0-56.7c-.7 0-1.3-.25-1.8-.75s-.75-1.1-.75-1.8V3.25c0-.7.25-1.3.75-1.8s1.1-.75 1.8-.75 1.25.25 1.65.75c.5.5.75 1.1.75 1.8v41.4h38.55c.7 0 1.3.25 1.8.75.5.4.75.95.75 1.65s-.25 1.3-.75 1.8-1.1.75-1.8.75h-40.95Zm54.15-35.4c.7 0 1.3.25 1.8.75s.75 1.1.75 1.8-.25 1.3-.75 1.8c-.5.4-1.1.6-1.8.6h-38.85v16.8c0 .7-.25 1.3-.75 1.8s-1.1.75-1.8.75-1.3-.25-1.8-.75c-.4-.5-.6-1.1-.6-1.8v-19.2c0-.7.2-1.3.6-1.8.5-.5 1.1-.75 1.8-.75h41.4Zm-41.85-8.1c-.7 0-1.3-.25-1.8-.75-.4-.5-.6-1.1-.6-1.8 0-1.6.8-2.4 2.4-2.4h42.15c.7 0 1.3.25 1.8.75.5.4.75.95.75 1.65s-.25 1.3-.75 1.8-1.1.75-1.8.75h-42.15Zm.45 62.25c.7 0 1.3.25 1.8.75.5.4.75 1 .75 1.8v17.7h30c.7 0 1.3.25 1.8.75s.75 1.1.75 1.8-.25 1.3-.75 1.8c-.5.4-1.1.6-1.8.6h-32.55c-1.6 0-2.4-.8-2.4-2.4V70.9c0-1.7.8-2.55 2.4-2.55Zm41.85 20.1c.7.2 1.2.65 1.5 1.35.3.6.35 1.25.15 1.95v.15c-.5 1.2-1.35 1.8-2.55 1.8-1.1-.3-1.85-.75-2.25-1.35-.4-.7-.5-1.45-.3-2.25.5-1.2 1.35-1.8 2.55-1.8.4 0 .7.05.9.15Zm77.089 15.15c0 1.6-.8 2.4-2.4 2.4-.7 0-1.3-.2-1.8-.6-.5-.5-.75-1.1-.75-1.8V67.45c0-.8.25-1.4.75-1.8.5-.5 1.1-.75 1.8-.75 1.6 0 2.4.85 2.4 2.55v36.15Zm8.55-63.15v-23.4c0-.7.25-1.3.75-1.8s1.1-.75 1.8-.75h27.75c.8 0 1.4.25 1.8.75.5.5.75 1.1.75 1.8 0 1.6-.85 2.4-2.55 2.4h-25.35v21c0 1.6-.8 2.4-2.4 2.4-.7 0-1.3-.2-1.8-.6-.5-.5-.75-1.1-.75-1.8Zm-22.65-25.95c.7 0 1.25.25 1.65.75.5.5.75 1.1.75 1.8 0 1.6-.8 2.4-2.4 2.4h-18.3c-1.7 0-2.55-.8-2.55-2.4 0-.7.2-1.3.6-1.8.5-.5 1.15-.75 1.95-.75h18.3Zm13.95-10.65v47.4h11.25c.7 0 1.25.25 1.65.75.5.5.75 1.1.75 1.8v38.25c0 1.7-.8 2.55-2.4 2.55-.7 0-1.3-.2-1.8-.6-.5-.5-.75-1.15-.75-1.95V56.2h-11.1c-.7 0-1.3-.2-1.8-.6-.5-.5-.75-1.1-.75-1.8V6.25h-27.3c-1.7 0-2.55-.8-2.55-2.4 0-1.7.85-2.55 2.55-2.55h29.85c1.6 0 2.4.85 2.4 2.55Zm11.25-2.55h19.5c1.6 0 2.4.85 2.4 2.55 0 1.6-.8 2.4-2.4 2.4h-19.5c-.7 0-1.3-.2-1.8-.6-.5-.5-.75-1.1-.75-1.8 0-.8.25-1.4.75-1.8.5-.5 1.1-.75 1.8-.75Zm28.65-.15c.8.2 1.35.65 1.65 1.35.3.7.35 1.4.15 2.1h-.15c-.3 1.3-1.15 1.95-2.55 1.95-1.1-.4-1.85-.9-2.25-1.5-.4-.7-.5-1.4-.3-2.1l.15-.15c.3-1.2 1.15-1.8 2.55-1.8.4 0 .65.05.75.15Zm56.78 71.4c0-1.6.85-2.4 2.55-2.4 1.6 0 2.4.8 2.4 2.4V103c0 1.6-.8 2.4-2.4 2.4-1.7 0-2.55-.8-2.55-2.4V72.55Zm46.2-34.2c-1.6 0-2.4-.8-2.4-2.4V4.15c0-.7.2-1.3.6-1.8.5-.5 1.1-.75 1.8-.75.8 0 1.4.25 1.8.75.5.5.75 1.1.75 1.8v31.8c0 1.6-.85 2.4-2.55 2.4Zm13.35 66.6c-.7 0-1.3-.25-1.8-.75-.4-.5-.6-1.1-.6-1.8V14.5c0-1.6.8-2.4 2.4-2.4.7 0 1.3.25 1.8.75.5.4.75.95.75 1.65v87.9c0 .7-.25 1.3-.75 1.8s-1.1.75-1.8.75Zm-57-54.75c-.8 0-1.45-.25-1.95-.75-.4-.5-.6-1.1-.6-1.8V4c0-1.6.85-2.4 2.55-2.4 1.6 0 2.4.8 2.4 2.4v41.25h41.25c1.7 0 2.55.8 2.55 2.4v46.2c0 .7-.25 1.3-.75 1.8-.4.5-1 .75-1.8.75-.7 0-1.3-.25-1.8-.75-.4-.5-.6-1.1-.6-1.8V50.2h-41.25Zm-13.35-.15c-.7 0-1.3-.2-1.8-.6-.5-.5-.75-1.1-.75-1.8V4c0-.7.25-1.25.75-1.65.5-.5 1.1-.75 1.8-.75 1.6 0 2.4.8 2.4 2.4v43.65c0 1.6-.8 2.4-2.4 2.4Zm0 54.9c-.7 0-1.3-.25-1.8-.75s-.75-1.1-.75-1.8V61.3c0-.7.25-1.3.75-1.8s1.1-.75 1.8-.75h45.15c.7 0 1.25.25 1.65.75.5.5.75 1.1.75 1.8 0 1.6-.8 2.4-2.4 2.4h-42.75v38.7c0 .7-.25 1.3-.75 1.8-.4.5-.95.75-1.65.75Zm58.05-5.4c.7.3 1.2.8 1.5 1.5.3.6.35 1.25.15 1.95v.15c-.5 1.2-1.35 1.8-2.55 1.8-1.1-.3-1.85-.8-2.25-1.5-.4-.7-.5-1.4-.3-2.1.3-1.3 1.15-1.95 2.55-1.95.2 0 .35.05.45.15h.45Zm74.263-4.5V56.2h-11.25c-1.6 0-2.4-.8-2.4-2.4V3.55c0-.7.2-1.3.6-1.8.5-.5 1.1-.75 1.8-.75s1.3.25 1.8.75.75 1.1.75 1.8v47.7h11.1c.7 0 1.3.25 1.8.75s.75 1.1.75 1.8v41.25c0 .7-.25 1.3-.75 1.8-.5.4-1.1.6-1.8.6-1.6 0-2.4-.8-2.4-2.4Zm-13.5-27.75c0-1.6.8-2.4 2.4-2.4 1.7 0 2.55.8 2.55 2.4v36.3c0 1.6-.85 2.4-2.55 2.4-1.6 0-2.4-.8-2.4-2.4V67.3Zm18.45-26.85c0 .7-.25 1.3-.75 1.8-.5.4-1.1.6-1.8.6-1.6 0-2.4-.8-2.4-2.4v-25.8c0-.7.2-1.3.6-1.8.5-.5 1.1-.75 1.8-.75s1.3.25 1.8.75.75 1.1.75 1.8v25.8Zm-3.45 65.55c-.7-.2-1.2-.65-1.5-1.35-.3-.7-.35-1.4-.15-2.1v-.15c.5-1.2 1.35-1.8 2.55-1.8.2 0 .35.05.45.15h.45c.8.2 1.35.65 1.65 1.35.3.7.3 1.4 0 2.1v.15c-.3 1.2-1.15 1.8-2.55 1.8l-.9-.15Zm65.909-9.6c0 1.6-.85 2.4-2.55 2.4-1.6 0-2.4-.8-2.4-2.4V53.95c0-1.7.8-2.55 2.4-2.55 1.7 0 2.55.85 2.55 2.55V96.4Zm-15.75 9.9c-1.6 0-2.4-.8-2.4-2.4V3.7c0-1.3.6-2.1 1.8-2.4h.3c.1-.1.2-.15.3-.15.9 0 1.6.4 2.1 1.2l61.8 100.2c.9 1.4.65 2.55-.75 3.45-.6.2-1.05.3-1.35.3-.9 0-1.6-.4-2.1-1.2l-57.15-92.7v91.5c0 .7-.25 1.3-.75 1.8-.5.4-1.1.6-1.8.6Zm19.5-94.05c-.9-1.4-.65-2.55.75-3.45.3-.2.75-.3 1.35-.3 1 0 1.7.35 2.1 1.05l35.7 56.85V3.7c0-.7.2-1.3.6-1.8.5-.5 1.1-.75 1.8-.75s1.3.25 1.8.75.75 1.1.75 1.8v71.25c0 1.3-.6 2.1-1.8 2.4-1.4 0-2.35-.35-2.85-1.05l-40.2-64.05Zm55.5-2.7c.8 0 1.4.25 1.8.75.5.5.75 1.1.75 1.8v91.8c0 1.6-.85 2.4-2.55 2.4-1.6 0-2.4-.8-2.4-2.4V12.1c0-.7.2-1.3.6-1.8.5-.5 1.1-.75 1.8-.75Zm-.75-3.3c-.8-.2-1.35-.65-1.65-1.35-.3-.7-.35-1.4-.15-2.1h.15c.3-1.3 1.15-1.95 2.55-1.95.2 0 .3.05.3.15h.45c1.7.7 2.3 1.85 1.8 3.45l-.15.15c-.3 1.2-1.15 1.8-2.55 1.8l-.75-.15Zm53.259 42.9c-.7 0-1.3-.25-1.8-.75-.4-.5-.6-1.1-.6-1.8V3.55c0-.7.2-1.3.6-1.8.5-.5 1.1-.75 1.8-.75s1.3.25 1.8.75.75 1.1.75 1.8V46.6c0 .7-.25 1.3-.75 1.8s-1.1.75-1.8.75Zm-2.4 45.15V68.35c0-.6.15-1.1.45-1.5L1016.36 1.6c.5-.6 1.15-.9 1.95-.9.6 0 1.1.15 1.5.45 1.4 1 1.55 2.15.45 3.45l-50.697 64.65V94.3c0 .7-.25 1.3-.75 1.8s-1.1.75-1.8.75-1.3-.25-1.8-.75c-.4-.5-.6-1.1-.6-1.8Zm18.15-63c0 .7-.25 1.3-.75 1.8s-1.1.75-1.8.75-1.3-.25-1.8-.75c-.4-.5-.6-1.1-.6-1.8V16.9c0-1.6.8-2.4 2.4-2.4.7 0 1.3.25 1.8.75.5.4.75.95.75 1.65v14.4Zm-2.55 74.1c-1.6 0-2.4-.8-2.4-2.4V75.25c0-.7.15-1.2.45-1.5l8.85-11.25c.5-.6 1.15-.9 1.95-.9.9 0 1.55.3 1.95.9l29.997 39.3c.9 1.3.75 2.45-.45 3.45-.4.3-.9.45-1.5.45-.8 0-1.45-.3-1.95-.9l-28.047-36.75-6.3 7.95v27c0 .7-.25 1.3-.75 1.8-.5.4-1.1.6-1.8.6ZM1038.71 1.15c1.3 1.1 1.4 2.25.3 3.45l-37.65 47.7 37.8 49.2c.4.5.55 1.1.45 1.8-.1.6-.45 1.15-1.05 1.65-.3.3-.8.45-1.5.45s-1.35-.3-1.95-.9l-38.847-50.7c-.7-1-.7-2 0-3l38.997-49.2c.5-.6 1.1-.9 1.8-.9s1.25.15 1.65.45ZM964.463 101.8c.5-1.2 1.35-1.8 2.55-1.8.4 0 .7.05.9.15.7.2 1.2.65 1.5 1.35.3.6.35 1.25.15 1.95v.15c-.3 1.2-1.15 1.8-2.55 1.8-1.1-.3-1.85-.75-2.25-1.35-.4-.7-.5-1.45-.3-2.25ZM33.95 269v-75.6H.5v-29.25h102.6v29.25H69.65V269h-35.7Zm95.862 0V164.15h35.7v37.95h36.15v-37.95h35.4V269h-35.4v-37.95h-36.15V269h-35.7Zm141.726 0V164.15h89.55v28.05h-53.85v11.4h43.2v25.05h-43.2v12.3h55.65V269h-91.35Zm200.464 0-29.4-104.85h37.05l12.75 55.8 1.35 10.8 17.1-66.6h33.9l17.85 66.6 1.35-10.8 12-55.8h34.95L581.652 269h-39l-13.35-51-2.4-12.45-2.7 12.45-13.35 51h-38.85Zm165.39 0V164.15h89.55v28.05h-53.85v11.4h43.2v25.05h-43.2v12.3h55.65V269h-91.35Zm121.512 0V164.15h61.95c26.4 0 39.6 8.9 39.6 26.7 0 7.3-2.6 12.75-7.8 16.35-5.2 3.5-11.5 5.55-18.9 6.15v.75c8.3.5 15.3 2.7 21 6.6 5.8 3.8 8.7 9.55 8.7 17.25 0 9.6-3.55 17.2-10.65 22.8-7 5.5-17.3 8.25-30.9 8.25h-63Zm34.35-63.6h21.45c5.8 0 8.7-2.9 8.7-8.7 0-2.7-.75-4.85-2.25-6.45-1.5-1.6-3.65-2.4-6.45-2.4h-21.45v17.55Zm0 39.9h21.6c7.5 0 11.25-3.45 11.25-10.35 0-6.1-3.75-9.15-11.25-9.15h-21.6v19.5Z" fill="#fff"/></svg>