<svg width="144" height="54" fill="none" xmlns="http://www.w3.org/2000/svg"><path d="M2.246 34.128V9.971h8.259v17.418H22.58v6.74H2.246Zm23.11 0V9.971h20.715v6.462H33.615v2.627h9.993v5.771h-9.993v2.834h12.873v6.463H25.356Zm81.003 0-1.18-3.767h-9.334l-1.18 3.767h-8.327l9.195-24.157h10.34l9.195 24.157h-8.709Zm-8.467-10.195h5.24l-2.637-8.294-2.603 8.294Zm19.498 10.195V9.971h11.277c4.603 0 8.177 1.002 10.722 3.006 2.567 2.005 3.851 4.954 3.851 8.848 0 4.4-1.295 7.545-3.886 9.435-2.591 1.912-6.235 2.868-10.93 2.868H117.39Zm8.188-6.255h3.574c3.655 0 5.483-2.097 5.483-6.29 0-3.571-1.77-5.357-5.309-5.357h-3.748v11.647Z" fill="#fff"/><path d="m14.225 45.792-2.013 6.048h-1.197l-1.5-4.476-1.527 4.476H6.782l-2.013-6.048h1.172l1.509 4.596 1.57-4.596h1.041l1.536 4.622 1.552-4.622h1.076Zm15.362 5.106v.942h-4.554v-6.048h4.432v.942H26.16v1.572h2.933v.925H26.16v1.667h3.427Zm15.449-2.203c.335.11.601.294.798.553.197.254.295.57.295.95 0 .524-.203.93-.607 1.219-.405.282-.995.423-1.77.423h-3.019v-6.048h2.846c.717 0 1.269.141 1.657.423.387.277.58.66.58 1.15 0 .299-.069.564-.208.794-.138.23-.33.41-.572.536Zm-3.175-2.022v1.668h1.596c.393 0 .694-.07.902-.208a.704.704 0 0 0 .321-.622c0-.276-.107-.483-.32-.622-.209-.144-.51-.216-.903-.216h-1.596Zm1.822 4.286c.873 0 1.31-.291 1.31-.873 0-.582-.437-.873-1.31-.873H41.86v1.746h1.822Z" fill="#FB1B3D"/><path d="M59.07 51.892c-.452 0-.885-.072-1.302-.216-.41-.144-.728-.334-.954-.57l.252-.493c.22.22.511.398.876.536.364.133.74.199 1.127.199.544 0 .952-.099 1.224-.294.271-.202.407-.461.407-.778 0-.242-.075-.435-.225-.579a1.412 1.412 0 0 0-.538-.328 7.907 7.907 0 0 0-.893-.26 10.124 10.124 0 0 1-1.093-.328 1.867 1.867 0 0 1-.703-.492c-.191-.219-.286-.515-.286-.89 0-.305.08-.582.242-.83.162-.253.41-.454.746-.604.336-.15.752-.225 1.25-.225.347 0 .685.05 1.015.147.335.092.624.222.867.389l-.217.51a2.898 2.898 0 0 0-.815-.372 2.961 2.961 0 0 0-.85-.13c-.533 0-.935.104-1.206.312a.941.941 0 0 0-.4.786.81.81 0 0 0 .218.587c.15.144.335.256.555.337.225.075.526.159.902.25.445.11.804.22 1.076.33.277.103.511.264.702.483.191.213.287.504.287.873 0 .305-.085.584-.252.838-.162.247-.414.446-.755.596-.341.144-.76.216-1.258.216Zm14.646-5.547h-2.134v-.553h4.91v.553h-2.134v5.495h-.642v-5.495Zm16.019 5.547c-.787 0-1.4-.225-1.84-.674-.439-.45-.659-1.103-.659-1.961v-3.465h.642v3.439c0 .703.16 1.227.477 1.572.318.346.778.519 1.38.519.607 0 1.07-.173 1.388-.519.317-.345.477-.87.477-1.572v-3.439h.624v3.465c0 .858-.22 1.512-.66 1.961-.433.45-1.043.674-1.83.674Zm14.313-6.1h2.472c.642 0 1.208.13 1.7.389.492.254.873.61 1.145 1.071.272.455.408.977.408 1.564 0 .588-.136 1.112-.408 1.573a2.85 2.85 0 0 1-1.145 1.07c-.492.255-1.058.381-1.7.381h-2.472v-6.048Zm2.437 5.495c.532 0 .998-.104 1.397-.31.399-.214.708-.505.928-.874.22-.374.33-.803.33-1.287 0-.484-.11-.91-.33-1.279a2.259 2.259 0 0 0-.928-.872c-.399-.213-.865-.32-1.397-.32h-1.795v4.942h1.795Zm14.619-5.495h.642v6.048h-.642v-6.048Zm15.161 6.1a3.406 3.406 0 0 1-1.64-.398 3.015 3.015 0 0 1-1.145-1.105 3.074 3.074 0 0 1-.408-1.573c0-.582.137-1.106.408-1.572a2.949 2.949 0 0 1 1.145-1.098 3.345 3.345 0 0 1 1.64-.406c.601 0 1.142.133 1.622.398.486.265.867.633 1.145 1.106.278.466.416.99.416 1.572 0 .582-.138 1.109-.416 1.581a2.949 2.949 0 0 1-1.145 1.098 3.302 3.302 0 0 1-1.622.397Zm0-.57c.48 0 .914-.107 1.301-.32.388-.219.691-.518.911-.899.22-.385.329-.815.329-1.287s-.109-.899-.329-1.279a2.31 2.31 0 0 0-.911-.898 2.596 2.596 0 0 0-1.301-.329c-.48 0-.917.11-1.31.329a2.38 2.38 0 0 0-.92.898c-.219.38-.329.807-.329 1.28 0 .471.11.9.329 1.286.226.38.533.68.92.899.393.213.83.32 1.31.32Z" fill="#fff"/><path d="m65.082 15.187 3.512-1.856 3.698 1.856h-7.21Zm10.352-1.856-6.84-4.825-7.58 4.825h14.42Zm-17.747 1.856v13.361l10.907 6.31 11.647-6.31V15.187L68.594 21.31l-10.907-6.124Z" stroke="#FB1B3D" stroke-width="2"/></svg>