<svg width="157" height="68" fill="none" xmlns="http://www.w3.org/2000/svg"><path d="m70.081 22.187 3.513-1.856 3.697 1.856h-7.21Zm10.353-1.856-6.84-4.825-7.58 4.825h14.42Zm-17.747 1.856v13.361l10.907 6.31 11.647-6.31V22.187L73.594 28.31l-10.907-6.124Z" stroke="#FB1B3D" stroke-width="2"/><path d="M3.364 40V12.04h6.28v22.72h14.72V40h-21Zm24.883 0V12.04h21.48v5h-15.2v6.44h12.48v4.6h-12.48V35h15.52v5h-21.8Zm90.046 0-2.08-5.84h-12.36l-2.08 5.84h-6.4l10.92-27.96h7.76L124.973 40h-6.68Zm-12.64-10.88h8.76l-4.4-12.44-4.36 12.44ZM128.364 40V12.04h11.52c4.826 0 8.573 1.187 11.24 3.56 2.666 2.347 4 5.76 4 10.24 0 4.72-1.334 8.267-4 10.64-2.667 2.347-6.52 3.52-11.56 3.52h-11.2Zm6.2-4.92h5.56c2.8 0 4.906-.813 6.32-2.44 1.413-1.627 2.12-3.973 2.12-7.04 0-2.853-.707-5.013-2.12-6.48-1.387-1.467-3.427-2.2-6.12-2.2h-5.76v18.16Z" fill="#131313"/><path d="M25.905 56.5 22.425 67h-2.07l-2.595-7.77L15.12 67h-2.084l-3.48-10.5h2.025l2.61 7.98 2.714-7.98h1.8l2.655 8.025 2.686-8.025h1.86Zm14.94 8.865V67h-7.876V56.5h7.665v1.635H34.92v2.73h5.07v1.605h-5.07v2.895h5.925Zm14.563-3.78c.69.15 1.22.45 1.59.9.38.44.57 1.01.57 1.71 0 .9-.335 1.595-1.005 2.085-.66.48-1.64.72-2.94.72h-4.83V56.5h4.53c1.17 0 2.075.235 2.715.705.65.47.975 1.135.975 1.995 0 .58-.145 1.075-.435 1.485-.28.4-.67.7-1.17.9Zm-5.505-4.17v3.81h3.345c.85 0 1.505-.16 1.965-.48.46-.33.69-.805.69-1.425s-.23-1.09-.69-1.41c-.46-.33-1.115-.495-1.965-.495h-3.345Zm3.705 8.67c.94 0 1.65-.16 2.13-.48.48-.32.72-.82.72-1.5 0-1.31-.95-1.965-2.85-1.965h-3.705v3.945h3.705Z" fill="#FB1B3D"/><path d="M68.472 67.09a6.81 6.81 0 0 1-2.25-.375c-.71-.25-1.26-.58-1.65-.99l.434-.855c.38.38.885.69 1.516.93.63.23 1.28.345 1.95.345.94 0 1.645-.17 2.115-.51.47-.35.704-.8.704-1.35 0-.42-.13-.755-.39-1.005-.25-.25-.56-.44-.93-.57-.37-.14-.885-.29-1.544-.45-.79-.2-1.42-.39-1.89-.57a3.24 3.24 0 0 1-1.216-.855c-.33-.38-.495-.895-.495-1.545 0-.53.14-1.01.42-1.44.28-.44.71-.79 1.29-1.05.58-.26 1.3-.39 2.16-.39.6 0 1.186.085 1.755.255.58.16 1.08.385 1.5.675l-.374.885c-.44-.29-.91-.505-1.41-.645a5.1 5.1 0 0 0-1.47-.225c-.92 0-1.615.18-2.085.54-.46.35-.69.805-.69 1.365 0 .42.124.76.374 1.02.26.25.58.445.96.585.39.13.91.275 1.56.435.77.19 1.39.38 1.86.57.48.18.885.46 1.215.84.33.37.495.875.495 1.515 0 .53-.144 1.015-.434 1.455-.28.43-.715.775-1.305 1.035-.59.25-1.316.375-2.175.375Zm13.702-9.63h-3.69v-.96h8.49v.96h-3.69V67h-1.11v-9.54Zm16.073 9.63c-1.36 0-2.42-.39-3.18-1.17-.76-.78-1.14-1.915-1.14-3.405V56.5h1.11v5.97c0 1.22.275 2.13.825 2.73.55.6 1.345.9 2.385.9 1.05 0 1.85-.3 2.4-.9.55-.6.825-1.51.825-2.73V56.5h1.08v6.015c0 1.49-.38 2.625-1.14 3.405-.75.78-1.805 1.17-3.165 1.17Zm13.125-10.59h4.275c1.11 0 2.09.225 2.94.675.85.44 1.51 1.06 1.98 1.86.47.79.705 1.695.705 2.715 0 1.02-.235 1.93-.705 2.73-.47.79-1.13 1.41-1.98 1.86-.85.44-1.83.66-2.94.66h-4.275V56.5Zm4.215 9.54c.92 0 1.725-.18 2.415-.54a4.045 4.045 0 0 0 1.605-1.515c.38-.65.57-1.395.57-2.235 0-.84-.19-1.58-.57-2.22a3.912 3.912 0 0 0-1.605-1.515c-.69-.37-1.495-.555-2.415-.555h-3.105v8.58h3.105Zm13.652-9.54h1.11V67h-1.11V56.5Zm14.592 10.59c-1.04 0-1.985-.23-2.835-.69-.84-.47-1.5-1.11-1.98-1.92-.47-.81-.705-1.72-.705-2.73s.235-1.92.705-2.73a5.109 5.109 0 0 1 1.98-1.905c.85-.47 1.795-.705 2.835-.705s1.975.23 2.805.69c.84.46 1.5 1.1 1.98 1.92.48.81.72 1.72.72 2.73s-.24 1.925-.72 2.745a5.109 5.109 0 0 1-1.98 1.905c-.83.46-1.765.69-2.805.69Zm0-.99c.83 0 1.58-.185 2.25-.555a4.14 4.14 0 0 0 1.575-1.56c.38-.67.57-1.415.57-2.235 0-.82-.19-1.56-.57-2.22a4.004 4.004 0 0 0-1.575-1.56c-.67-.38-1.42-.57-2.25-.57-.83 0-1.585.19-2.265.57-.67.37-1.2.89-1.59 1.56-.38.66-.57 1.4-.57 2.22 0 .82.19 1.565.57 2.235.39.66.92 1.18 1.59 1.56.68.37 1.435.555 2.265.555Z" fill="#131313"/></svg>