<svg width="14" height="14" fill="none" xmlns="http://www.w3.org/2000/svg"><path d="M13.67 7.964a.492.492 0 0 0-.412.09 5.25 5.25 0 0 1-1.593.93 4.986 4.986 0 0 1-1.807.322c-1.449 0-2.773-.59-3.721-1.539a5.261 5.261 0 0 1-1.539-3.721c0-.609.107-1.199.286-1.736a4.804 4.804 0 0 1 .86-1.538.457.457 0 0 0-.072-.644c-.126-.09-.269-.126-.412-.09a7.22 7.22 0 0 0-3.793 2.54A7.086 7.086 0 0 0 0 6.892c0 1.95.787 3.721 2.075 5.01a7.059 7.059 0 0 0 5.01 2.075 7.115 7.115 0 0 0 4.383-1.521 7.054 7.054 0 0 0 2.505-3.918c.09-.269-.054-.52-.304-.573Zm-2.738 3.74a6.14 6.14 0 0 1-8.159-.483A6.14 6.14 0 0 1 .966 6.872a6.05 6.05 0 0 1 1.27-3.74 6.151 6.151 0 0 1 2.058-1.717c-.09.197-.179.393-.25.608a5.954 5.954 0 0 0-.34 2.04c0 1.7.697 3.256 1.807 4.365a6.182 6.182 0 0 0 4.365 1.807 5.99 5.99 0 0 0 2.13-.375c.232-.09.464-.18.679-.287a6.51 6.51 0 0 1-1.753 2.13Z" fill="#fff"/></svg>