<svg width="17" height="16" fill="none" xmlns="http://www.w3.org/2000/svg"><g clip-path="url(#a)" fill="#131313"><path d="M5.86 5.293C5.14 5.98 4.675 6.949 4.675 8c0 1.05.444 2.02 1.185 2.707a4.133 4.133 0 0 0 2.836 1.131c1.1 0 2.116-.444 2.836-1.13.72-.688 1.185-1.658 1.185-2.708 0-1.05-.444-2.02-1.185-2.707a4.132 4.132 0 0 0-2.836-1.131c-1.1 0-2.116.424-2.836 1.13Zm4.91.727A2.73 2.73 0 0 1 11.617 8a2.73 2.73 0 0 1-.847 1.98 3 3 0 0 1-2.074.808 3 3 0 0 1-2.074-.808A2.73 2.73 0 0 1 5.775 8c0-.768.318-1.475.847-1.98a3 3 0 0 1 2.074-.808 3 3 0 0 1 2.074.808ZM8.146.888v1.556c0 .283.254.525.55.525.297 0 .551-.242.551-.525V.888c0-.282-.254-.525-.55-.525-.297 0-.55.243-.55.525ZM13.966 8c0 .282.254.525.55.525h1.63c.296 0 .55-.243.55-.525 0-.283-.254-.526-.55-.526h-1.63c-.296 0-.55.243-.55.526ZM13.585 2.606l-1.164 1.11c-.211.183-.211.526 0 .728.212.202.55.202.762 0l1.164-1.11a.496.496 0 0 0 0-.728.555.555 0 0 0-.762 0ZM.696 8c0 .282.254.525.55.525h1.63c.296 0 .55-.243.55-.525 0-.283-.254-.526-.55-.526h-1.63c-.296 0-.55.243-.55.526ZM3.045 2.586a.496.496 0 0 0 0 .727L4.21 4.424c.212.202.55.202.762 0 .212-.182.212-.525 0-.727L3.807 2.586a.555.555 0 0 0-.762 0ZM8.146 13.555v1.556c0 .283.254.525.55.525.297 0 .551-.222.551-.525v-1.556c0-.282-.254-.525-.55-.525-.297 0-.55.243-.55.525ZM12.421 11.575c-.211.182-.211.526 0 .728l1.164 1.11c.212.203.55.203.762 0a.496.496 0 0 0 0-.726l-1.164-1.111a.555.555 0 0 0-.762 0ZM4.21 11.575l-1.165 1.112a.496.496 0 0 0 0 .727c.212.202.55.202.762 0l1.164-1.111a.496.496 0 0 0 0-.728.555.555 0 0 0-.762 0Z"/></g><defs><clipPath id="a"><path fill="#fff" transform="rotate(-90 8.166 7.47)" d="M0 0h15.273v16H0z"/></clipPath></defs></svg>