<svg width="37" height="37" fill="none" xmlns="http://www.w3.org/2000/svg"><path d="M18.722 36.174a18.076 18.076 0 0 1-13.817-6.423A18.084 18.084 0 0 1 .65 18.104c0-4.827 1.88-9.365 5.293-12.778A17.952 17.952 0 0 1 18.722.033c4.827 0 9.365 1.88 12.778 5.293a17.952 17.952 0 0 1 5.293 12.778 18.084 18.084 0 0 1-6.386 13.784 18.076 18.076 0 0 1-11.685 4.286Zm0-33.882c-8.719 0-15.812 7.093-15.812 15.812a15.822 15.822 0 0 0 5.588 12.062 15.815 15.815 0 0 0 22.316-1.872 15.821 15.821 0 0 0 3.72-10.19c0-8.719-7.093-15.812-15.812-15.812Z" fill="#919191"/></svg>