<svg width="23" height="23" fill="none" xmlns="http://www.w3.org/2000/svg"><path d="M11.148 22.055a10.923 10.923 0 0 1-10.92-10.92c0-2.917 1.135-5.66 3.198-7.722A10.849 10.849 0 0 1 11.148.215c2.917 0 5.659 1.136 7.721 3.198a10.848 10.848 0 0 1 3.199 7.722 10.928 10.928 0 0 1-3.86 8.33 10.923 10.923 0 0 1-7.06 2.59Zm0-20.475c-5.27 0-9.555 4.286-9.555 9.555a9.561 9.561 0 0 0 3.376 7.289 9.557 9.557 0 0 0 13.485-1.131 9.561 9.561 0 0 0 2.249-6.158c0-5.269-4.287-9.555-9.555-9.555Z" fill="#919191"/><path d="M11.148 11.135A4.1 4.1 0 0 1 7.053 7.04a4.1 4.1 0 0 1 4.095-4.095 4.1 4.1 0 0 1 4.095 4.095 4.1 4.1 0 0 1-4.095 4.095Zm0-6.825a2.733 2.733 0 0 0-2.73 2.73 2.733 2.733 0 0 0 2.73 2.73 2.733 2.733 0 0 0 2.73-2.73 2.733 2.733 0 0 0-2.73-2.73Z" fill="#919191"/><path d="M17.768 19.627a.684.684 0 0 1-.663-.849c.123-.488.185-.993.185-1.5 0-3.34-2.715-6.095-6.052-6.142l-.09-.001h-.09c-3.338.048-6.053 2.803-6.053 6.143 0 .507.062 1.012.185 1.5a.682.682 0 0 1-1.324.333 7.536 7.536 0 0 1-.226-1.834c0-1.986.769-3.86 2.164-5.273a7.463 7.463 0 0 1 5.237-2.233h.01l.097-.001h.106a7.463 7.463 0 0 1 5.237 2.234 7.463 7.463 0 0 1 2.164 5.274c0 .62-.076 1.236-.226 1.833a.683.683 0 0 1-.661.516Z" fill="#919191"/></svg>